<?xml version="1.0" encoding="UTF-8" standalone="no"?>
<!-- Created with Inkscape (http://www.inkscape.org/) -->

<svg
   width="240.17603"
   height="259.41513"
   viewBox="0 0 240.17603 259.41513"
   version="1.1"
   id="svg1"
   inkscape:version="1.3 (0e150ed6c4, 2023-07-21)"
   sodipodi:docname="drawt-light.svg"
   xmlns:inkscape="http://www.inkscape.org/namespaces/inkscape"
   xmlns:sodipodi="http://sodipodi.sourceforge.net/DTD/sodipodi-0.dtd"
   xmlns="http://www.w3.org/2000/svg"
   xmlns:svg="http://www.w3.org/2000/svg">
  <sodipodi:namedview
     id="namedview1"
     pagecolor="#ffffff"
     bordercolor="#000000"
     borderopacity="0.25"
     inkscape:showpageshadow="2"
     inkscape:pageopacity="0.0"
     inkscape:pagecheckerboard="0"
     inkscape:deskcolor="#d1d1d1"
     inkscape:document-units="px"
     inkscape:zoom="1.9162594"
     inkscape:cx="127.85326"
     inkscape:cy="175.08068"
     inkscape:window-width="1920"
     inkscape:window-height="1009"
     inkscape:window-x="-8"
     inkscape:window-y="-8"
     inkscape:window-maximized="1"
     inkscape:current-layer="layer1" />
  <defs
     id="defs1" />
  <g
     inkscape:label="Layer 1"
     inkscape:groupmode="layer"
     id="layer1"
     transform="translate(-29.911985,-20.292416)">
    <path
       style="fill:#000000"
       id="path1"
       d="m 232.13945,250.68991 c -0.75288,-0.0259 -1.50759,-0.0191 -2.25862,-0.0778 -3.3788,-0.26396 -8.03118,-0.90026 -11.18041,-1.2851 -3.21791,-0.39325 -6.4374,-0.77357 -9.65504,-1.16908 -15.48144,-1.90298 -10.68611,-1.30865 -27.36914,-3.5687 -22.37997,-3.05219 -44.6684,-6.73573 -66.90426,-10.6944 -30.347405,-5.40279 0.83413,-0.0447 -27.704164,-4.89667 -15.748885,-2.87709 -31.504082,-5.85291 -46.977622,-9.99135 -1.30777,-0.35956 -3.316422,-0.82489 -4.62361,-1.45069 -0.394814,-0.18901 -1.477928,-0.93725 -1.09624,-0.72297 13.653637,7.66534 27.471961,15.04866 40.914928,23.0777 0.334898,0.20003 -0.454126,0.63452 -0.671681,0.95831 -0.252609,0.37595 -0.492385,0.76037 -0.738577,1.14056 0.474335,-0.29256 0.859997,-0.71113 1.330484,-1.00826 5.398636,-3.4094 11.674569,-4.93806 17.748718,-6.6289 8.171834,-2.0201 16.436504,-3.63549 24.740564,-5.00427 3.22864,-0.5322 6.4736,-0.96217 9.7018,-1.49703 19.00854,-3.14943 2.52629,-0.81161 22.35768,-3.42026 17.05947,-1.99053 34.16542,-3.67424 51.32699,-4.44619 4.39327,-0.15039 8.79975,-0.32781 13.1856,0.0543 0.34051,-0.47658 0.9882,0.46536 1.34747,0.18856 1.49737,-1.15364 2.64666,-4.19715 2.66736,-5.69106 0.008,-0.5477 -0.85775,-0.68425 -1.31709,-0.98264 -0.63836,-0.41467 -1.31402,-0.76887 -1.97102,-1.15331 -12.15917,-7.80152 -23.57343,-16.70756 -34.79296,-25.78861 -7.74466,-6.48525 -15.34688,-13.21512 -21.99956,-20.8418 -2.8185,-3.23115 -3.53003,-4.3309 -5.95965,-7.63808 -1.56046,-2.1465 -2.86869,-4.44644 -4.1231,-6.77758 -0.26343,-0.48954 -1.13363,-1.99655 -1.29823,-2.60388 -0.14359,-0.52979 -0.15088,-1.08739 -0.22632,-1.63108 0.12705,-0.85104 0.18348,-1.71568 0.38113,-2.55314 0.70382,-2.9823 1.96906,-6.28846 3.13538,-9.05504 3.17796,-7.53827 7.09788,-14.66665 11.03363,-21.82537 6.84112,-12.15664 14.17713,-24.040186 22.40824,-35.311036 4.63754,-6.350186 7.14648,-9.314516 12.00457,-15.328131 4.2475,-5.026729 8.59316,-9.988811 13.27776,-14.617144 1.43195,-1.414759 3.40526,-3.174652 4.94308,-4.564647 0,0 -39.75983,-23.592707 -39.75983,-23.592707 v 0 c -3.6935,7.805454 -7.78582,15.424748 -12.37875,22.74106 -4.30092,6.776542 -5.93134,9.462136 -10.5519,16.237021 -7.91498,11.605318 -16.27449,22.906498 -24.0428,34.613508 -4.34666,6.308506 -5.65691,8.302916 -10.06846,14.360266 -2.54699,3.49718 -5.21996,6.90202 -7.74163,10.4175 -0.86766,1.2096 -1.75389,2.40993 -2.52777,3.68157 -0.59107,0.97125 -1.03932,2.02251 -1.55898,3.03377 -0.58747,2.09541 -1.13025,2.94301 -0.65924,5.08912 0.35216,1.6046 1.46278,2.98191 2.40527,4.24813 1.69021,2.27075 3.07657,3.89948 4.90588,6.13043 2.79999,3.34031 4.53924,5.49888 7.57867,8.74663 7.6039,8.12504 16.09857,15.33519 24.62354,22.46251 8.09318,6.72788 6.0988,5.04035 13.84299,11.58899 1.80297,1.52463 3.6297,3.02184 5.40242,4.58152 1.24961,1.09944 2.42829,2.27723 3.66247,3.39398 1.22789,1.11108 2.91949,2.53568 4.22457,3.64484 0.41125,0.32663 0.79527,0.69084 1.23375,0.97989 0.22385,0.14756 0.56022,0.52059 0.73799,0.31989 0.92322,-1.04233 1.39112,-2.41402 2.15055,-3.58109 0.2995,-0.46026 0.77133,-0.80375 1.02097,-1.29284 0.17076,-0.33457 -1.5869,0.89991 -1.10456,0.22298 -3.45739,0.68606 -6.8483,1.66372 -10.24089,2.61032 -14.81008,4.04143 -29.92948,6.77138 -45.15345,8.71896 -26.306409,3.17384 3.08992,-0.22949 -23.813733,2.43058 -12.46478,1.23244 -24.867375,3.09951 -37.250939,4.95043 -3.787513,0.65807 -9.992347,1.70268 -13.855831,2.49611 -3.379439,0.69403 -8.492923,1.62233 -11.495616,3.60106 -0.638725,0.4209 -1.123187,1.03874 -1.68478,1.55812 -0.427396,0.79623 -0.972205,1.53981 -1.282186,2.38866 -0.213785,0.58543 -0.797369,1.52513 -0.265938,1.85072 47.781366,29.27433 26.117563,22.74587 46.32084,23.92063 13.021579,0.83419 26.003773,2.16807 38.949123,3.80294 13.4325,1.77205 26.89591,3.31522 40.31698,5.17246 11.88941,1.64528 22.1014,3.20693 33.96702,5.27484 5.91264,1.03045 11.80506,2.17365 17.7076,3.26048 21.10832,4.30614 42.32512,8.6152 62.69712,15.75916 z" />
  </g>
</svg>
